OpenSim_Sub07_CSBaseline_LCS.mot
version=1
nRows=26
nColumns=11
inDegrees=no
endheader
time	Bot_Shank	2nd_Bot_Shank	2nd_Top_Shank	Top_Shank	Bot_Thigh	Med_Thigh	Top_Thigh	BNOx	BNOy	BNOZ
19.47000000	9569.87954674	8736.92156885	9993.62246985	9593.55805183	10552.44099007	10777.77960000	12478.63707867	198.56545637	-76.70130853	-1.34462624
19.48000000	9566.90696534	8737.04419347	9994.15385224	9587.07577718	10570.28526172	10794.43300865	12478.81372902	197.45640391	-77.02033919	-64.65041717
19.49000000	9566.13918473	8736.53856148	9991.87901477	9579.04919640	10585.75603651	10807.51288138	12479.25572987	196.31741936	-77.32282935	-122.35021336
19.50000000	9568.54715508	8735.18956613	9985.84654595	9569.11275946	10597.15034007	10815.53341392	12479.92251932	195.17366837	-77.59498408	-169.28685918
19.51000000	9574.76733119	8732.79151906	9975.28353697	9556.98914833	10603.14725650	10817.42142026	12480.76411185	194.04499111	-77.82329652	-201.21135848
19.52000000	9583.62695623	8729.18967402	9960.38256070	9542.87827244	10604.49233947	10814.33547515	12481.67955193	192.92242329	-77.99581793	-218.78674906
19.53000000	9593.34439084	8724.24642912	9941.66111877	9527.14065008	10602.62660432	10808.18524304	12482.55073025	191.78730662	-78.10112396	-224.32919296
19.54000000	9602.13753684	8717.82419538	9919.63695767	9510.13692060	10598.99159045	10800.88095434	12483.25952458	190.62097550	-78.12779066	-220.15609802
19.55000000	9608.22429602	8709.78538381	9894.82782390	9492.22772332	10595.02883725	10794.33283950	12483.68781269	189.40476433	-78.06439405	-208.58487206
19.56000000	9609.82257019	8699.99240545	9867.75146395	9473.77369759	10592.17988414	10790.45112894	12483.71747235	188.12000751	-77.89951020	-191.93292290
19.57000000	9605.15026115	8688.30767131	9838.92562432	9455.13548273	10591.88627052	10791.14605312	12483.23038134	186.74803945	-77.62171513	-172.51765837
19.58000000	9592.42527070	8674.59359242	9808.86805149	9436.67371808	10595.58953580	10798.32784245	12482.10841741	185.27019454	-77.21958489	-152.65648628
19.59000000	9569.86550066	8658.71257979	9778.09649198	9418.74904297	10604.73121937	10813.90672738	12480.23345834	183.66780719	-76.68169551	-134.66681447
19.60000000	9536.23925492	8640.66282527	9747.18539397	9401.74045953	10620.47390760	10839.35857206	12477.60989921	181.92808285	-76.00051741	-120.51573819
19.61000000	9493.29184077	8621.17692910	9717.01589271	9386.12629009	10642.47139145	10873.80984941	12474.90480407	180.06998212	-75.18958475	-110.27558944
19.62000000	9443.77046340	8601.23465357	9688.57233763	9372.41828283	10669.86968316	10915.59635462	12473.00825545	178.12315270	-74.26952061	-103.38102566
19.63000000	9390.42308305	8581.81594724	9662.83915598	9361.12821107	10701.81441230	10963.05328707	12472.81050393	176.11725033	-73.26095341	-99.26622372
19.64000000	9335.99765991	8563.90075867	9640.80077498	9352.76784817	10737.45120847	11014.51584611	12475.20180010	174.08193074	-72.18451156	-97.36536050
19.65000000	9283.24215421	8548.46903640	9623.44162186	9347.84896747	10775.92570125	11068.31923112	12481.07239454	172.04684968	-71.06082351	-97.11261290
19.66000000	9234.90452615	8536.50072901	9611.74612386	9346.88334231	10816.38352021	11122.79864146	12491.31253784	170.04166288	-69.91051766	-97.94215779
19.67000000	9193.73273596	8528.97578503	9606.69870821	9350.38274604	10857.97029495	11176.28927650	12506.81248057	168.09602609	-68.75422244	-99.28817206
19.68000000	9162.47474385	8526.87415302	9609.28380213	9358.85895201	10899.83165506	11227.12633559	12528.46247333	166.23959504	-67.61256627	-100.58483259
19.69000000	9143.38863504	8530.95619550	9620.25847341	9372.82380380	10941.17427906	11273.89568548	12556.86028072	164.49699319	-66.50510088	-101.33775720
19.70000000	9136.08286912	8540.79458255	9639.15005269	9392.78952494	10981.53504585	11316.53899727	12591.02167538	162.86562541	-65.44555434	-101.43897186
19.71000000	9139.27418537	8555.56227139	9665.07200780	9419.26846684	11020.56196181	11355.45423235	12629.43001721	161.33373629	-64.44569481	-100.91054661
19.72000000	9151.67865108	8574.43191803	9697.13749469	9452.77298098	11057.90311711	11391.03969594	12670.56826488	159.88956352	-63.51728896	-99.77464946
